<svg width="24" height="24" viewBox="0 0 24 24" fill="none" xmlns="http://www.w3.org/2000/svg">
<path d="M6.3 8.96038L6 2.44057C6.1 2.44057 6.2 2.34026 6.2 2.23996C6.2 2.13965 6.2 2 6 2H4C3.8 2 3.8 2.12109 3.8 2.23996C3.8 2.34026 3.9 2.44057 4 2.44057L3.7 8.96038C2.7 9.4619 2 10.465 2 11.6686V20.997C2 21.5988 2.4 22 3 22H7C7.6 22 8 21.5988 8 20.997V11.5683C8 10.465 7.3 9.3616 6.3 8.96038Z" fill="#101010"/>
<path d="M13.3 8.96038L13 2.44057C13.1 2.44057 13.2 2.34026 13.2 2.23996C13.2 2.13965 13.2 2 13 2H11C10.8 2 10.8 2.12109 10.8 2.23996C10.8 2.34026 10.9 2.44057 11 2.44057L10.7 8.96038C9.7 9.4619 9 10.465 9 11.6686V20.997C9 21.5988 9.4 22 10 22H14C14.6 22 15 21.5988 15 20.997V11.5683C15 10.465 14.3 9.3616 13.3 8.96038Z" fill="#101010"/>
<path d="M20.3 8.96038L20 2.44057C20.1 2.44057 20.2 2.34026 20.2 2.23996C20.2 2.13965 20.2 2 20 2H18C17.8 2 17.8 2.12109 17.8 2.23996C17.8 2.34026 17.9 2.44057 18 2.44057L17.7 8.96038C16.7 9.4619 16 10.465 16 11.6686V20.997C16 21.5988 16.4 22 17 22H21C21.6 22 22 21.5988 22 20.997V11.5683C22 10.465 21.3 9.3616 20.3 8.96038Z" fill="#101010"/>
</svg>
