<svg width="28" height="28" viewBox="0 0 28 28" fill="none" xmlns="http://www.w3.org/2000/svg">
<path fill-rule="evenodd" clip-rule="evenodd" d="M13.9999 2.3335C7.55992 2.3335 2.33325 7.56016 2.33325 14.0002C2.33325 20.4402 7.55992 25.6668 13.9999 25.6668C20.4399 25.6668 25.6666 20.4402 25.6666 14.0002C25.6666 7.56016 20.4399 2.3335 13.9999 2.3335ZM13.9999 5.8335C15.9366 5.8335 17.4999 7.39683 17.4999 9.3335C17.4999 11.2702 15.9366 12.8335 13.9999 12.8335C12.0633 12.8335 10.4999 11.2702 10.4999 9.3335C10.4999 7.39683 12.0633 5.8335 13.9999 5.8335ZM6.99992 18.6435C8.50492 20.9068 11.0833 22.4001 13.9999 22.4001C16.9166 22.4001 19.4949 20.9068 20.9999 18.6435C20.9649 16.3218 16.3216 15.0501 13.9999 15.0501C11.6666 15.0501 7.03492 16.3218 6.99992 18.6435Z" fill="#FAFAFA"/>
</svg>
