<svg width="28" height="28" viewBox="0 0 28 28" fill="none" xmlns="http://www.w3.org/2000/svg">
<path d="M7.35016 10.4537L7.00016 2.84725C7.11683 2.84725 7.2335 2.73023 7.2335 2.6132C7.2335 2.49618 7.2335 2.33325 7.00016 2.33325H4.66683C4.4335 2.33325 4.4335 2.47453 4.4335 2.6132C4.4335 2.73023 4.55016 2.84725 4.66683 2.84725L4.31683 10.4537C3.15016 11.0388 2.3335 12.209 2.3335 13.6133V24.4964C2.3335 25.1985 2.80016 25.6666 3.50016 25.6666H8.16683C8.86683 25.6666 9.3335 25.1985 9.3335 24.4964V13.4963C9.3335 12.209 8.51683 10.9218 7.35016 10.4537Z" fill="#FAFAFA"/>
<path d="M15.5167 10.4537L15.1667 2.84725C15.2833 2.84725 15.4 2.73023 15.4 2.6132C15.4 2.49618 15.4 2.33325 15.1667 2.33325H12.8333C12.6 2.33325 12.6 2.47453 12.6 2.6132C12.6 2.73023 12.7167 2.84725 12.8333 2.84725L12.4833 10.4537C11.3167 11.0388 10.5 12.209 10.5 13.6133V24.4964C10.5 25.1985 10.9667 25.6666 11.6667 25.6666H16.3333C17.0333 25.6666 17.5 25.1985 17.5 24.4964V13.4963C17.5 12.209 16.6833 10.9218 15.5167 10.4537Z" fill="#FAFAFA"/>
<path d="M23.6832 10.4537L23.3332 2.84725C23.4498 2.84725 23.5665 2.73023 23.5665 2.6132C23.5665 2.49618 23.5665 2.33325 23.3332 2.33325H20.9998C20.7665 2.33325 20.7665 2.47453 20.7665 2.6132C20.7665 2.73023 20.8832 2.84725 20.9998 2.84725L20.6498 10.4537C19.4832 11.0388 18.6665 12.209 18.6665 13.6133V24.4964C18.6665 25.1985 19.1332 25.6666 19.8332 25.6666H24.4998C25.1998 25.6666 25.6665 25.1985 25.6665 24.4964V13.4963C25.6665 12.209 24.8498 10.9218 23.6832 10.4537Z" fill="#FAFAFA"/>
</svg>
